<?xml version="1.0" encoding="utf-8"?>
<!-- Generator: Adobe Illustrator 26.5.0, SVG Export Plug-In . SVG Version: 6.00 Build 0)  -->
<svg version="1.1" id="Layer_1" xmlns="http://www.w3.org/2000/svg" xmlns:xlink="http://www.w3.org/1999/xlink" x="0px" y="0px"
	 width="206.7px" height="36px" viewBox="0 0 206.7 36" style="enable-background:new 0 0 206.7 36;" xml:space="preserve">
<style type="text/css">
	.st0{fill:#BCC2CD;}
</style>
<g>
	<path class="st0" d="M12.6,13.6h3.3c0,0-0.1-9.7-7.1-9.6c-7,0.1-8.5,9.5-8.5,14s1.8,14,7.8,14c6-0.1,7.4-5,7.8-10.8
		c-0.8,0.1-3.3-0.1-3.3-0.1s0.1,7.7-4,7.7s-4.7-7.3-4.7-10.9S5,6.9,8.9,6.9S12.6,12.4,12.6,13.6z"/>
	<path class="st0" d="M36.5,4h-2.8l-7.4,28h3.6l2-8.1h6.2l2,8.1h3.4L36.5,4z M32.6,20.9l2.3-9.2l2.2,9.2H32.6z"/>
	<polygon class="st0" points="54.7,32 54.7,4 59.4,4 62.5,21.8 65.6,4 70.3,4 70.3,32 67.1,32 67.1,11.2 63.9,32 61.4,32 57.7,10.8 
		57.7,32 	"/>
	<polygon class="st0" points="82,32 82,4 86.7,4 89.7,21.8 92.9,4 97.7,4 97.7,32 94.5,32 94.5,11.2 91.1,32 88.7,32 85,10.8 
		84.9,32 	"/>
	<polygon class="st0" points="110.1,4 124.1,4 124.1,6.9 113.7,6.9 113.7,15.5 123.2,15.5 123.2,18.6 113.6,18.6 113.6,29.1 
		124.6,29.1 124.6,32 110.1,32 	"/>
	<path class="st0" d="M148.2,16.9c0,0,3.3-2.6,3.4-6.2c0.1-3.6-2.8-6.6-6.2-6.7C142,3.9,137,4,137,4v28h7.6c0.7,0,1.4-0.1,2.1-0.4
		c2-0.8,5.6-2.8,5.6-7.7C152.6,18.8,148.2,16.9,148.2,16.9z M140.2,7.2h5.4c0,0,2.8,0.4,2.8,3.7c0,2.3-1.5,3.4-2.5,3.9
		c-0.5,0.2-0.8,0.4-1.3,0.4h-4.4V7.2z M143.4,29.2h-3.3V18.1h4.3c0.5,0,0.9,0.1,1.4,0.4c1.2,0.6,3.3,2.1,3.3,5.3
		c0,1.6-0.6,2.8-1.4,3.7C146.6,28.5,145.1,29.2,143.4,29.2z"/>
	<polygon class="st0" points="163.4,4.3 170,18.6 170,32 173.5,32 173.5,18.6 180.1,4.3 176.7,4.3 171.7,15.1 167,4.3 	"/>
	<path class="st0" d="M205.6,11.9c0,0,0.6-8-6.7-8c-6.9,0-6.7,6.8-6.7,7.7c0,0.9,1.1,4.2,6.1,7.6c4,2.7,4.9,3.9,5,6.1
		c0,2.2-2.2,3.5-4.3,3.5s-4.2-1.9-4.2-2.7c0-0.9,0-3,0-3h-3.3c0,0,0,2.7,0,3.6c0,1.6,2.6,5.3,7.6,5.3c5.4,0,7.6-3.7,7.6-8
		c0-3.3-3.2-5.1-6.7-7.6s-5.7-4.3-3.7-8.1c0.9-1.4,3.4-2.2,5.1-0.5s1.2,3.9,1.2,3.9L205.6,11.9z"/>
</g>
</svg>
