<svg width="76" height="76" viewBox="0 0 76 76" fill="none" xmlns="http://www.w3.org/2000/svg">
<path d="M38.0023 4.10684C28.6463 4.10684 20.1733 7.90182 14.0387 14.0411C7.90182 20.1663 4.10918 28.644 4.10918 38.0047C4.10918 47.3584 7.90182 55.8302 14.0387 61.9578C20.1733 68.0888 28.6463 71.8908 38.0023 71.8908C47.3607 71.8908 55.8384 68.0888 61.9636 61.9578C68.0982 55.8302 71.8826 47.3584 71.8826 38.0047C71.8826 28.644 68.0982 20.1663 61.9636 14.0411C55.8384 7.90182 47.3607 4.10684 38.0023 4.10684ZM38.0023 -7.62939e-06C58.9863 -7.62939e-06 76 17.0161 76 38.0047C76 58.9863 58.9863 76 38.0023 76C17.0208 76 0 58.9863 0 38.0047C0 17.0161 17.0208 -7.62939e-06 38.0023 -7.62939e-06Z" fill="#BCC2CD"/>
<path d="M20.0299 37.6954C20.0299 35.4808 18.5605 34.2228 16.4802 34.2228H15.207V41.1703H16.444C18.3783 41.1703 20.0299 40.1191 20.0299 37.6954ZM42.6771 40.195L33.2977 47.5806L24.7254 40.8316C23.4885 43.8031 20.4994 45.867 17.0572 45.867H9.7207V29.5238H17.0572C20.9036 29.5238 23.6753 31.9696 24.7231 34.5755L33.2977 27.8336L36.4736 30.3332L28.615 36.5098L30.1253 37.6919L37.9816 31.5188L41.1621 34.0114L33.3047 40.195L34.8127 41.3794L42.6771 35.1946V29.5238H48.3783V41.0967H54.0655V45.8869H42.6771V40.195ZM61.2876 41.0991H66.9724V45.8869H55.5805V29.5238H61.2876V41.0991Z" fill="#BCC2CD"/>
</svg>
