<svg width="76" height="34" viewBox="0 0 76 34" fill="none" xmlns="http://www.w3.org/2000/svg">
<path d="M52.4123 10.4102C51.3587 11.4885 51.3587 13.2361 52.4123 14.3143L56.1103 18.095C56.3492 18.3673 57.352 19.6344 56.9837 21.3479C56.965 21.4361 56.9816 21.5321 57.0484 21.6008C57.1479 21.7022 57.3093 21.7022 57.4081 21.6008L58.4737 20.5112L59.8363 19.1173C61.1928 17.7314 61.1928 15.4841 59.8363 14.0975L56.2304 10.4102C55.1761 9.3333 53.4666 9.3333 52.4123 10.4102" fill="#BCC2CD"/>
<path d="M74.5621 33.0692C75.6163 31.9923 75.6163 30.2441 74.5621 29.1664L70.8635 25.3857C70.6253 25.1128 69.6224 23.8464 69.99 22.1322C70.0094 22.0441 69.9921 21.948 69.9253 21.8793C69.8259 21.7785 69.6644 21.7785 69.5656 21.8793L68.5007 22.9689L67.1375 24.3635C65.7816 25.7487 65.7816 27.9961 67.1375 29.3826L70.744 33.0692C71.7976 34.1475 73.5071 34.1475 74.5621 33.0692Z" fill="#BCC2CD"/>
<path d="M52.4018 29.1775L70.7628 10.4162C71.2952 9.87305 71.9992 9.6048 72.6998 9.61349C73.3811 9.62294 74.0577 9.88972 74.5735 10.4182C75.0966 10.952 75.3582 11.6573 75.3588 12.3619C75.3602 13.0699 75.0979 13.7772 74.5728 14.3136L56.2119 33.0749C55.6874 33.6107 54.9968 33.879 54.3062 33.8777C53.6156 33.8777 52.9243 33.6094 52.4005 33.0742C51.8907 32.5505 51.6278 31.8652 51.6151 31.1766C51.603 30.4533 51.8654 29.7266 52.4018 29.1775Z" fill="#BCC2CD"/>
<path d="M4.71077 14.9311H2.88782C1.66807 14.9311 0.679199 13.9202 0.679199 12.6737C0.679199 11.4273 1.66807 10.4171 2.88782 10.4171H4.71077V8.71755C4.71077 6.08056 5.36602 4.1148 6.59111 2.86302C7.81486 1.61125 9.52037 0.985352 11.7937 0.985352C12.7459 0.985352 13.5466 1.05667 14.2606 1.17687C15.3135 1.35297 16.0788 2.29651 16.0788 3.38882C16.0775 4.70199 14.9805 5.73493 13.7001 5.62082C13.4665 5.60077 13.2263 5.58884 12.9748 5.58884C10.963 5.58884 9.91338 6.70648 9.91338 9.16533V10.4611H13.8482C15.0553 10.4611 16.0341 11.462 16.0341 12.6965C16.0341 13.9309 15.0553 14.9311 13.8482 14.9311H10.0008V31.1795C10.0008 32.6722 8.81641 33.8832 7.35645 33.8832C5.89515 33.8832 4.71077 32.6722 4.71077 31.1795V14.9311Z" fill="#BCC2CD"/>
<path d="M21.6182 1.25342C23.0788 1.25342 24.2632 2.46449 24.2632 3.95715V31.1792C24.2632 32.6726 23.0788 33.8836 21.6182 33.8836C20.1575 33.8836 18.9731 32.6726 18.9731 31.1792V3.95715C18.9731 2.46449 20.1575 1.25342 21.6182 1.25342Z" fill="#BCC2CD"/>
<path d="M45.1539 19.8932C45.2907 19.8932 45.3994 19.7697 45.3821 19.6303C44.9597 16.2706 42.9626 13.6797 39.5529 13.6797C36.3981 13.6797 34.1581 16.1025 33.6023 19.6223C33.581 19.7624 33.6904 19.8932 33.8292 19.8932H45.1539ZM28.317 21.6361V21.3131C28.317 13.9359 34.7987 8.11874 41.8943 9.46327C47.7161 10.5669 50.6581 15.9043 50.6581 21.949C50.6574 22.7891 49.9915 23.4683 49.1701 23.4683L33.8786 23.469C33.7371 23.469 33.627 23.6039 33.6524 23.7459C34.3049 27.4158 36.9253 29.459 40.2522 29.459C42.2106 29.459 43.7406 28.8911 45.1672 27.8182C45.998 27.1916 47.1323 27.2123 47.9036 27.9116C48.8812 28.7984 48.8818 30.3845 47.8709 31.2292C45.8912 32.8827 43.3803 33.8842 40.1654 33.8842C33.4762 33.8842 28.317 28.9219 28.317 21.6361" fill="#BCC2CD"/>
</svg>
