<svg width="100" height="34" viewBox="0 0 100 34" fill="none" xmlns="http://www.w3.org/2000/svg">
<path d="M12.492 8.50635C5.58786 8.50635 0 14.0679 0 20.9395C0 27.8111 5.58786 33.3727 12.492 33.3727C19.3961 33.3727 24.9839 27.8111 24.9839 20.9395C24.9839 14.0679 19.3961 8.50635 12.492 8.50635ZM12.492 27.1685C9.03992 27.1685 6.23357 24.3753 6.23357 20.9395C6.23357 17.5037 9.03992 14.7106 12.492 14.7106C15.944 14.7106 18.7504 17.5037 18.7504 20.9395C18.7504 24.3753 15.944 27.1685 12.492 27.1685Z" fill="#BCC2CD"/>
<path d="M34.4456 25.1168C34.4456 24.1281 35.6377 23.6585 36.3331 24.3506C39.4623 27.5145 44.628 32.9524 44.6528 32.9772C44.7273 33.0513 44.8018 33.1749 45.0998 33.2738C45.224 33.3232 45.4227 33.3232 45.6462 33.3232H51.2837C52.302 33.3232 52.6 32.1615 52.1281 31.5682L42.7902 22.0518L42.2935 21.5574C41.2256 20.2968 41.3497 19.8024 42.5667 18.5171L49.9675 10.286C50.4393 9.69277 50.1413 8.55574 49.0982 8.55574H43.9823C43.7836 8.55574 43.6346 8.55574 43.4856 8.60518C43.1875 8.70405 43.0634 8.80292 42.9889 8.90179C42.964 8.92651 38.8663 13.3263 36.3331 16.0206C35.6377 16.7621 34.396 16.2678 34.396 15.2543V1.14033C34.396 0.42351 33.7999 0.151611 33.3281 0.151611H29.1558C28.4356 0.151611 28.0879 0.621254 28.0879 1.04146V32.3345C28.0879 33.0513 28.6839 33.2491 29.1806 33.2491H33.3529C33.9986 33.2491 34.4208 32.7794 34.4208 32.3098V31.9884V25.1168H34.4456Z" fill="#BCC2CD"/>
<path d="M68.5191 32.1862L68.0721 28.0336C68.0225 27.465 67.4761 27.0695 66.9049 27.1684C66.582 27.2179 66.2592 27.2426 65.9363 27.2426C62.6084 27.2426 59.9014 24.6472 59.7027 21.3597C59.7027 21.2608 59.7027 21.1372 59.7027 21.0136V15.9217C59.7027 15.2543 60.1994 14.7105 60.87 14.7105H66.4579C66.8552 14.7105 67.4512 14.3645 67.4512 13.6477V9.71749C67.4512 8.95123 66.9545 8.55574 66.5075 8.55574H60.87C60.2243 8.55574 59.7027 8.0861 59.6779 7.44343V1.14033C59.6779 0.744844 59.3799 0.151611 58.61 0.151611H54.4626C53.941 0.151611 53.4443 0.472946 53.4443 1.11561C53.4443 1.11561 53.4443 21.2608 53.4443 21.3597C53.6182 28.083 59.1564 33.4468 65.9363 33.4468C66.5075 33.4468 67.0539 33.3974 67.6003 33.3232C68.1963 33.2491 68.5937 32.7547 68.5191 32.1862Z" fill="#BCC2CD"/>
<path d="M98.6193 26.9705C95.0927 26.9705 94.5464 25.7099 94.5464 20.9888C94.5464 20.9641 94.5464 20.964 94.5464 20.9393V9.59376C94.5464 9.19827 94.2484 8.53088 93.4536 8.53088H89.2814C88.7598 8.53088 88.1886 8.95109 88.1886 9.59376V10.1128C86.3757 9.07468 84.2647 8.48145 82.0296 8.48145C75.1255 8.48145 69.5376 14.043 69.5376 20.9146C69.5376 27.7862 75.1255 33.3478 82.0296 33.3478C85.1339 33.3478 87.9651 32.2108 90.1506 30.3569C91.3178 32.1366 93.2053 33.3231 96.1607 33.3478C96.6574 33.3478 99.3395 33.4467 99.3395 32.186V27.7615C99.3395 27.3907 99.0415 26.9705 98.6193 26.9705ZM82.0544 27.1683C78.6023 27.1683 75.796 24.3751 75.796 20.9393C75.796 17.5035 78.6023 14.7104 82.0544 14.7104C85.5065 14.7104 88.3128 17.5035 88.3128 20.9393C88.288 24.3751 85.4816 27.1683 82.0544 27.1683Z" fill="#BCC2CD"/>
</svg>
